<?xml version="1.0" standalone="no"?>
<!DOCTYPE svg PUBLIC "-//W3C//DTD SVG 20010904//EN"
 "http://www.w3.org/TR/2001/REC-SVG-20010904/DTD/svg10.dtd">
<svg version="1.0" xmlns="http://www.w3.org/2000/svg"
 width="600.000000pt" height="600.000000pt" viewBox="0 0 600.000000 600.000000"
 preserveAspectRatio="xMidYMid meet">

<g transform="translate(0.000000,600.000000) scale(0.100000,-0.100000)"
fill="#000000" stroke="none">
<path d="M2765 5989 c-944 -71 -1802 -591 -2311 -1401 -74 -119 -196 -362
-248 -495 -320 -823 -256 -1773 172 -2538 631 -1131 1905 -1729 3172 -1490
790 149 1491 614 1934 1283 274 414 425 832 487 1347 18 148 15 504 -5 660
-107 834 -517 1547 -1172 2041 -584 439 -1298 648 -2029 593z m1704 -2207
c341 -91 601 -344 702 -683 19 -63 23 -101 25 -264 1 -104 -2 -236 -7 -293
-37 -399 -326 -738 -719 -844 -123 -33 -357 -33 -480 0 -233 63 -465 233 -577
423 l-17 29 -396 0 -395 -1 -35 -56 c-45 -73 -168 -198 -248 -252 -87 -58
-212 -117 -307 -143 -120 -32 -365 -32 -484 0 -281 77 -516 275 -637 538 -63
136 -77 206 -81 419 -6 300 20 451 104 620 99 197 282 370 483 456 64 27 192
62 265 72 17 2 635 4 1375 3 l1345 -2 84 -22z"/>
<path d="M4209 3566 c-59 -21 -98 -54 -124 -107 -21 -40 -25 -63 -25 -131 0
-100 20 -150 76 -196 95 -78 222 -67 306 26 45 50 62 107 56 192 -8 105 -50
169 -138 209 -52 24 -99 26 -151 7z"/>
<path d="M1707 3446 c-96 -35 -116 -84 -117 -278 l0 -148 -147 0 c-169 0 -212
-13 -254 -71 -20 -29 -25 -48 -27 -126 -5 -110 11 -151 71 -191 39 -26 47 -27
198 -30 l158 -4 3 -162 c3 -162 3 -163 32 -200 72 -94 205 -88 273 13 21 30
23 46 23 146 0 62 3 133 6 158 l6 45 158 4 c150 3 158 4 197 30 60 40 76 81
71 191 -2 78 -7 97 -27 126 -42 59 -85 71 -258 71 l-153 0 0 156 c0 143 -2
160 -22 196 -39 69 -119 100 -191 74z"/>
<path d="M3735 3102 c-49 -24 -89 -65 -109 -114 -23 -55 -21 -188 3 -236 75
-148 266 -171 369 -46 41 50 56 109 49 195 -7 86 -38 143 -98 184 -55 39 -153
46 -214 17z"/>
<path d="M4632 3099 c-51 -26 -99 -81 -112 -129 -6 -19 -10 -66 -10 -105 0
-87 22 -138 80 -187 93 -80 229 -67 309 29 41 49 54 102 49 189 -6 87 -39 151
-100 191 -57 38 -154 44 -216 12z"/>
<path d="M4200 2659 c-86 -35 -140 -122 -140 -229 0 -84 12 -126 51 -173 105
-127 310 -97 373 55 19 44 21 154 5 209 -16 52 -64 108 -113 130 -45 20 -135
24 -176 8z"/>
</g>
</svg>
